<svg width="214" height="27" viewBox="0 0 214 27" fill="none" xmlns="http://www.w3.org/2000/svg">
<g clip-path="url(#clip0_2873_5483)">
<path d="M17.0686 0.042684C17.1517 0.0381964 17.2178 0.0292213 17.2838 0.0292213C18.7694 0.0292213 20.2551 0.0292213 21.7385 0.0269775C21.8707 0.0269775 21.9496 0.062878 22.022 0.190773C22.8256 1.60884 23.6334 3.02242 24.4433 4.436C25.2298 5.80919 26.0185 7.18013 26.805 8.55332C27.146 9.14793 27.487 9.74253 27.8195 10.3439C27.9048 10.4987 28.0007 10.566 28.1798 10.566C30.2238 10.5593 32.2679 10.5458 34.3119 10.5772C34.7552 10.5839 35.0068 10.465 35.222 10.0454C35.7123 9.09632 36.26 8.18086 36.7844 7.25194C37.3087 6.32301 37.8352 5.39409 38.3574 4.46517C38.9179 3.46893 39.4743 2.47269 40.0348 1.47646C40.2821 1.03668 40.5357 0.601384 40.7766 0.15936C40.8426 0.0404402 40.9364 0.0449277 41.0366 0.0449277C41.9062 0.0449277 42.7759 0.0449277 43.6455 0.0449277C44.2444 0.0449277 44.8433 0.0494153 45.4423 0.042684C45.6107 0.0404402 45.664 0.0898033 45.664 0.273793C45.6576 1.27227 45.664 2.27075 45.664 3.26923C45.6661 4.36868 45.6703 5.46813 45.6746 6.56534C45.6789 8.13374 45.6853 9.70214 45.6895 11.2705C45.6895 11.5465 45.681 11.5577 45.4124 11.5577C44.481 11.5577 43.5496 11.5488 42.6181 11.551C40.6806 11.551 38.7453 11.5622 36.8078 11.5622C30.6863 11.5667 24.5648 11.5667 18.4433 11.569C16.4504 11.569 14.4554 11.5712 12.4625 11.569C12.3261 11.569 12.2622 11.6228 12.211 11.7485C11.8103 12.7402 10.8874 13.18 9.91757 12.8502C8.78365 12.4642 8.34031 10.8667 9.0991 9.89959C10.0114 8.73731 11.6696 8.9931 12.2174 10.3865C12.2686 10.5189 12.3389 10.5593 12.471 10.5593C13.9162 10.557 15.3613 10.5593 16.8085 10.5593C16.9861 10.5593 17.0749 10.4635 17.0749 10.2721C17.0749 6.96922 17.0749 3.66414 17.0749 0.3613C17.0749 0.262574 17.0749 0.161604 17.0749 0.0471715L17.0686 0.042684ZM9.70869 11.0417C9.70443 11.5375 10.0689 11.9302 10.5357 11.9302C10.979 11.9302 11.3627 11.5308 11.3712 11.0551C11.3776 10.6086 10.9812 10.1846 10.5485 10.1823C10.0924 10.1778 9.71295 10.566 9.70869 11.0417Z" fill="white"></path>
<path d="M19.7819 21.28C19.6669 21.271 19.5795 21.2598 19.4942 21.2598C17.5631 21.2598 15.632 21.2598 13.701 21.2665C13.5432 21.2665 13.4452 21.2149 13.3493 21.0826C12.6672 20.1357 11.9745 19.2 11.2924 18.2554C11.205 18.1342 11.1176 18.0781 10.9727 18.0804C10.329 18.0871 9.68532 18.0871 9.04162 18.0804C8.91374 18.0804 8.86685 18.141 8.82422 18.2487C8.47679 19.1148 7.76063 19.5568 6.88034 19.4491C6.14713 19.3593 5.50556 18.7176 5.36276 17.9323C5.18372 16.954 5.72297 16.0341 6.64802 15.7401C7.50699 15.4664 8.45548 15.9443 8.80077 16.8396C8.87111 17.0191 8.9585 17.0729 9.13541 17.0729C9.91978 17.064 10.7063 17.0729 11.4906 17.0684C11.61 17.0684 11.6889 17.1088 11.7592 17.2076C12.4391 18.1477 13.1255 19.0834 13.8011 20.0257C13.912 20.1806 14.0292 20.2479 14.221 20.2479C20.9351 20.2434 27.6491 20.2479 34.3631 20.2501C38.0399 20.2501 41.7145 20.2568 45.3912 20.2613C45.4424 20.2613 45.4935 20.2636 45.5447 20.2613C45.6598 20.2591 45.7067 20.3197 45.7045 20.4386C45.7003 20.5867 45.7003 20.7348 45.7003 20.8851C45.7088 22.743 45.7194 24.603 45.728 26.4609C45.728 26.7773 45.7237 26.784 45.4296 26.784C43.7692 26.784 42.1088 26.7817 40.4484 26.7885C40.28 26.7885 40.2651 26.701 40.263 26.5686C40.2566 25.6778 40.2459 24.787 40.2416 23.8963C40.2374 23.1289 40.2416 22.3638 40.2416 21.5964C40.2416 21.2441 40.2353 21.2419 39.9028 21.2441C38.236 21.2486 36.5713 21.2553 34.9045 21.2598C34.7297 21.2598 34.555 21.2598 34.3802 21.2553C34.2672 21.2508 34.1905 21.2957 34.1308 21.4012C33.6832 22.191 33.2313 22.9785 32.7859 23.7706C32.7262 23.8761 32.6686 23.9434 32.5408 23.9434C31.75 23.9389 30.9592 23.9479 30.1685 23.9366C30.1003 23.9366 30.0086 23.8559 29.9681 23.7863C29.4992 22.9943 29.0431 22.1977 28.572 21.4079C28.5315 21.3383 28.4249 21.271 28.3482 21.2688C26.4789 21.2621 24.6097 21.2643 22.7404 21.2621C22.6189 21.2621 22.5763 21.3069 22.5763 21.4393C22.5763 22.9426 22.5741 24.446 22.5699 25.9493C22.5699 26.1692 22.5635 26.3891 22.5699 26.609C22.5741 26.7481 22.523 26.793 22.3908 26.793C21.4253 26.7885 20.4597 26.793 19.4942 26.793C18.7482 26.793 18.0043 26.7885 17.2583 26.793C17.1177 26.793 17.075 26.7481 17.0772 26.6C17.0835 25.9762 17.0772 25.3525 17.0814 24.7287C17.0814 24.5582 17.0303 24.4953 16.8661 24.5021C16.6061 24.5133 16.3461 24.5088 16.086 24.5021C15.9688 24.4998 15.9027 24.5402 15.858 24.6614C15.4935 25.6621 14.4406 26.158 13.4963 25.7474C12.8185 25.4534 12.4306 24.8947 12.3752 24.1229C12.324 23.4094 12.6054 22.8327 13.1638 22.4311C13.8182 21.9599 14.6473 21.9868 15.2676 22.4894C15.5361 22.7048 15.7386 22.9853 15.8537 23.3218C15.8963 23.4475 15.9539 23.5036 16.0839 23.5036C16.7383 23.4991 17.3947 23.5081 18.0491 23.4969C18.128 23.4969 18.2303 23.434 18.2814 23.3667C18.7567 22.725 19.2235 22.0765 19.6903 21.4303C19.7159 21.3944 19.7372 21.3541 19.7819 21.28ZM14.172 24.8723C14.6281 24.8723 15.0075 24.4819 15.0097 24.0084C15.0139 23.535 14.6239 23.1221 14.172 23.1199C13.7137 23.1199 13.3343 23.5215 13.3365 24.0084C13.3365 24.4886 13.7095 24.8723 14.172 24.8723ZM7.96311 17.5755C7.96311 17.1043 7.59438 16.6982 7.15743 16.6937C6.69278 16.6892 6.30699 17.0819 6.30059 17.5643C6.2942 18.0333 6.69704 18.4573 7.14464 18.4529C7.57946 18.4484 7.96098 18.04 7.96311 17.5755Z" fill="white"></path>
<path d="M27.1714 14.8067C21.1118 14.8067 15.0521 14.8067 8.99239 14.8112C8.81122 14.8112 8.69612 14.7573 8.58315 14.6025C7.71353 13.3976 6.83537 12.1972 5.95509 11.0012C5.9082 10.9384 5.81015 10.8846 5.73555 10.8823C5.08546 10.8734 4.4375 10.8823 3.78741 10.8734C3.65313 10.8734 3.58919 10.9182 3.54017 11.0506C3.26734 11.7798 2.59168 12.2735 1.8542 12.26C1.09754 12.2465 0.528441 11.8696 0.210856 11.1493C-0.100334 10.4493 -0.0150765 9.76044 0.449577 9.15911C0.899311 8.57797 1.49825 8.35584 2.20375 8.4972C2.84745 8.62733 3.28439 9.0357 3.54017 9.65947C3.59771 9.79858 3.66805 9.84346 3.80446 9.84346C4.60589 9.83897 5.40731 9.84346 6.21086 9.83897C6.32596 9.83897 6.39843 9.87936 6.4645 9.97135C7.34266 11.1852 8.2272 12.3946 9.10536 13.6108C9.19061 13.7297 9.28227 13.779 9.42934 13.779C18.0297 13.779 26.6301 13.779 35.2326 13.7813C38.6322 13.7813 42.0318 13.7835 45.4315 13.7858C45.6787 13.7858 45.6937 13.7992 45.6937 14.0528C45.6937 14.2435 45.6915 14.432 45.6937 14.6227C45.6937 14.7259 45.6553 14.7775 45.5551 14.7775C45.4656 14.7775 45.3739 14.782 45.2844 14.782C43.2958 14.782 41.3093 14.782 39.3207 14.782C35.2709 14.782 31.2233 14.782 27.1736 14.782C27.1736 14.7887 27.1736 14.7955 27.1736 14.8022L27.1714 14.8067ZM1.02933 10.355C1.02933 10.8285 1.40233 11.2301 1.8542 11.2391C2.27835 11.2481 2.69398 10.8083 2.68972 10.3573C2.68546 9.90853 2.28688 9.4867 1.86485 9.48221C1.42151 9.47772 1.02933 9.88834 1.02933 10.355Z" fill="white"></path>
<path d="M31.895 18.0444C27.4403 18.0444 22.9835 18.0444 18.5288 18.0444C18.5053 18.0444 18.484 18.0467 18.4605 18.0444C18.2645 18.0153 18.1579 18.0848 18.0684 18.2957C17.7614 19.0205 17.1966 19.4154 16.457 19.4243C15.4168 19.4356 14.6346 18.6054 14.6282 17.5306C14.6197 16.1462 15.9753 15.215 17.2009 15.8096C17.6208 16.0138 17.9319 16.3481 18.0918 16.8081C18.1536 16.9831 18.2389 17.028 18.4009 17.028C19.6328 17.0235 20.8627 17.0258 22.0947 17.0258C27.1547 17.0258 32.2147 17.0302 37.2748 17.0325C39.9966 17.0325 42.7185 17.0325 45.4403 17.0325C45.6918 17.0325 45.694 17.0325 45.6961 17.2995C45.6961 17.4835 45.6961 17.6675 45.6961 17.8515C45.6961 17.9681 45.6449 18.0265 45.532 18.0265C45.3742 18.0265 45.2165 18.0287 45.0567 18.0287C41.3181 18.0287 37.5796 18.0287 33.841 18.031C33.1909 18.031 32.543 18.031 31.8929 18.031C31.8929 18.0355 31.8929 18.0377 31.8929 18.0422L31.895 18.0444ZM16.4357 18.3989C16.8897 18.3967 17.2712 17.9973 17.2712 17.5261C17.2712 17.0572 16.862 16.6331 16.4186 16.6398C15.9838 16.6466 15.5831 17.0774 15.5916 17.5328C15.6002 18.0063 15.9838 18.4012 16.4357 18.3989Z" fill="white"></path>
</g>
<path d="M147.423 2.2545C147.122 2.2545 146.868 2.14545 146.659 1.92734C146.451 1.70924 146.347 1.44266 146.347 1.12762C146.347 0.812575 146.451 0.546 146.659 0.327893C146.868 0.109786 147.122 0.000732422 147.423 0.000732422C147.713 0.000732422 147.956 0.109786 148.152 0.327893C148.361 0.546 148.465 0.812575 148.465 1.12762C148.465 1.44266 148.361 1.70924 148.152 1.92734C147.956 2.14545 147.713 2.2545 147.423 2.2545ZM148.187 3.87213V13.8323H146.607V3.87213H148.187Z" fill="white"></path>
<path d="M134.282 8.81657C134.282 7.79873 134.479 6.90813 134.873 6.14476C135.266 5.36927 135.804 4.76947 136.487 4.34537C137.182 3.92128 137.952 3.70923 138.797 3.70923C139.63 3.70923 140.354 3.89704 140.967 4.27267C141.581 4.6483 142.038 5.12087 142.339 5.69037V3.87281H143.936V13.833H142.339V11.9791C142.026 12.5607 141.558 13.0454 140.932 13.4332C140.319 13.8088 139.601 13.9966 138.779 13.9966C137.934 13.9966 137.17 13.7785 136.487 13.3423C135.804 12.9061 135.266 12.2942 134.873 11.5066C134.479 10.7189 134.282 9.82228 134.282 8.81657ZM142.339 8.83474C142.339 8.08348 142.194 7.42916 141.905 6.87178C141.615 6.31439 141.222 5.8903 140.724 5.59949C140.238 5.29656 139.7 5.1451 139.109 5.1451C138.519 5.1451 137.981 5.2905 137.494 5.58131C137.008 5.87212 136.621 6.29622 136.331 6.8536C136.042 7.41099 135.897 8.06531 135.897 8.81657C135.897 9.57994 136.042 10.2464 136.331 10.8159C136.621 11.3733 137.008 11.8034 137.494 12.1063C137.981 12.3972 138.519 12.5426 139.109 12.5426C139.7 12.5426 140.238 12.3972 140.724 12.1063C141.222 11.8034 141.615 11.3733 141.905 10.8159C142.194 10.2464 142.339 9.586 142.339 8.83474Z" fill="white"></path>
<path d="M131.731 13.9418C131.43 13.9418 131.175 13.8327 130.967 13.6146C130.758 13.3965 130.654 13.1299 130.654 12.8149C130.654 12.4998 130.758 12.2333 130.967 12.0151C131.175 11.797 131.43 11.688 131.731 11.688C132.02 11.688 132.263 11.797 132.46 12.0151C132.668 12.2333 132.773 12.4998 132.773 12.8149C132.773 13.1299 132.668 13.3965 132.46 13.6146C132.263 13.8327 132.02 13.9418 131.731 13.9418Z" fill="white"></path>
<path d="M129.561 1.16174L125.619 9.04994V13.8301H124.039V9.04994L120.08 1.16174H121.834L124.82 7.57772L127.807 1.16174H129.561Z" fill="white"></path>
<path d="M116.896 13.8301L114.013 8.65008H112.103V13.8301H110.523V1.16174H114.43C115.344 1.16174 116.114 1.32532 116.739 1.65248C117.376 1.97964 117.851 2.42192 118.163 2.9793C118.476 3.53669 118.632 4.17283 118.632 4.88774C118.632 5.76016 118.389 6.5296 117.903 7.19603C117.428 7.86247 116.71 8.30474 115.75 8.52285L118.788 13.8301H116.896ZM112.103 7.32326H114.43C115.287 7.32326 115.929 7.10516 116.357 6.66894C116.786 6.22061 117 5.62688 117 4.88774C117 4.13648 116.786 3.55486 116.357 3.14288C115.941 2.7309 115.298 2.52491 114.43 2.52491H112.103V7.32326Z" fill="white"></path>
<path d="M106.332 13.8301L103.449 8.65008H101.539V13.8301H99.9592V1.16174H103.866C104.781 1.16174 105.55 1.32532 106.175 1.65248C106.812 1.97964 107.287 2.42192 107.599 2.9793C107.912 3.53669 108.068 4.17283 108.068 4.88774C108.068 5.76016 107.825 6.5296 107.339 7.19603C106.864 7.86247 106.146 8.30474 105.186 8.52285L108.224 13.8301H106.332ZM101.539 7.32326H103.866C104.723 7.32326 105.365 7.10516 105.793 6.66894C106.222 6.22061 106.436 5.62688 106.436 4.88774C106.436 4.13648 106.222 3.55486 105.793 3.14288C105.377 2.7309 104.734 2.52491 103.866 2.52491H101.539V7.32326Z" fill="white"></path>
<path d="M91.7965 13.9601C90.6737 13.9601 89.6492 13.6874 88.7231 13.1422C87.7971 12.5848 87.062 11.8153 86.518 10.8339C85.9855 9.84026 85.7192 8.72549 85.7192 7.48955C85.7192 6.25361 85.9855 5.1449 86.518 4.16342C87.062 3.16982 87.7971 2.40039 88.7231 1.85512C89.6492 1.29774 90.6737 1.01904 91.7965 1.01904C92.9309 1.01904 93.9612 1.29774 94.8872 1.85512C95.8133 2.40039 96.5426 3.16376 97.075 4.14524C97.6075 5.12672 97.8738 6.24149 97.8738 7.48955C97.8738 8.73761 97.6075 9.85237 97.075 10.8339C96.5426 11.8153 95.8133 12.5848 94.8872 13.1422C93.9612 13.6874 92.9309 13.9601 91.7965 13.9601ZM91.7965 12.5242C92.6415 12.5242 93.3997 12.3182 94.0711 11.9062C94.7541 11.4942 95.2866 10.9066 95.6686 10.1432C96.0622 9.37981 96.259 8.49527 96.259 7.48955C96.259 6.47172 96.0622 5.58717 95.6686 4.83591C95.2866 4.07254 94.7599 3.48486 94.0885 3.07288C93.4171 2.6609 92.6531 2.45491 91.7965 2.45491C90.9399 2.45491 90.1759 2.6609 89.5045 3.07288C88.8331 3.48486 88.3006 4.07254 87.9071 4.83591C87.5251 5.58717 87.3341 6.47172 87.3341 7.48955C87.3341 8.49527 87.5251 9.37981 87.9071 10.1432C88.3006 10.9066 88.8331 11.4942 89.5045 11.9062C90.1875 12.3182 90.9515 12.5242 91.7965 12.5242Z" fill="white"></path>
<path d="M80.3941 12.4851H84.6308V13.8301H78.814V1.16174H80.3941V12.4851Z" fill="white"></path>
<path d="M77.1478 1.16174L73.2062 9.04994V13.8301H71.6261V9.04994L67.6672 1.16174H69.421L72.4075 7.57772L75.394 1.16174H77.1478Z" fill="white"></path>
<path d="M65.9946 1.25574V13.8332H64.4145V4.45464L60.4209 13.8332H59.3096L55.2986 4.43646V13.8332H53.7185V1.25574H55.4201L59.8652 11.6522L64.3103 1.25574H65.9946Z" fill="white"></path>
<path d="M91.9531 21.7502H92.921L93.802 23.5653L94.6766 21.7502H95.6316L94.2489 24.6172V26.8069H93.3422V24.6172L91.9531 21.7502Z" fill="white"></path>
<path d="M89.0593 21.7502H91.6735V22.699H90.8117V26.8069H89.8986V22.699H89.0593V21.7502Z" fill="white"></path>
<path d="M86.1008 21.7502H88.6828V22.6921H86.9947V23.6065H88.6828V24.5312H86.9947V25.8616H88.6828V26.8069H86.1008V21.7502Z" fill="white"></path>
<path d="M82.9463 21.7502H85.2936V22.6887H83.837V23.6065H85.2936V24.5312H83.837V26.8069H82.9463V21.7502Z" fill="white"></path>
<path d="M79.4999 21.7502H80.4131L82.233 26.8069H81.2973L80.9276 25.7653H78.9983L78.6124 26.8069H77.6768L79.4999 21.7502ZM79.9629 23.0909L79.3327 24.8268H80.5899L79.9629 23.0909Z" fill="white"></path>
<path d="M77.1108 22.4373L76.4452 23.0663C76.2116 22.718 75.9737 22.5438 75.7314 22.5438C75.6135 22.5438 75.5171 22.5782 75.442 22.6469C75.367 22.7134 75.3295 22.789 75.3295 22.8738C75.3295 22.9586 75.3563 23.0388 75.4099 23.1145C75.4828 23.2153 75.7025 23.4319 76.069 23.7642C76.412 24.0712 76.62 24.2649 76.6928 24.3451C76.875 24.5422 77.0037 24.7312 77.0787 24.9123C77.1559 25.091 77.1944 25.287 77.1944 25.5001C77.1944 25.9149 77.0605 26.2575 76.7925 26.5279C76.5246 26.7984 76.1752 26.9336 75.7443 26.9336C75.4077 26.9336 75.1141 26.8453 74.8633 26.6689C74.6146 26.4924 74.4013 26.2151 74.2234 25.837L74.979 25.3489C75.2062 25.7957 75.4678 26.0192 75.7636 26.0192C75.9179 26.0192 76.0476 25.9711 76.1526 25.8748C76.2577 25.7786 76.3102 25.6674 76.3102 25.5414C76.3102 25.4268 76.2705 25.3122 76.1912 25.1976C76.1119 25.083 75.9372 24.9077 75.6671 24.6717C75.1526 24.2225 74.8204 23.8764 74.6703 23.6335C74.5203 23.3883 74.4453 23.1442 74.4453 22.9013C74.4453 22.5507 74.5696 22.2505 74.8182 22.0007C75.069 21.7486 75.3777 21.6226 75.7443 21.6226C75.9801 21.6226 76.2041 21.681 76.4163 21.7979C76.6307 21.9148 76.8622 22.1279 77.1108 22.4373Z" fill="white"></path>
<path d="M69.3616 21.7502H71.9436V22.6921H70.2555V23.6065H71.9436V24.5312H70.2555V25.8616H71.9436V26.8069H69.3616V21.7502Z" fill="white"></path>
<path d="M65.5994 21.7502H66.5543C67.0774 21.7502 67.4493 21.8007 67.6701 21.9015C67.893 22 68.072 22.165 68.2071 22.3965C68.3421 22.628 68.4096 22.9018 68.4096 23.2181C68.4096 23.5504 68.3346 23.8288 68.1846 24.0534C68.0367 24.2757 67.8127 24.4441 67.5125 24.5587L68.6315 26.8069H67.6476L66.5833 24.6653H66.4997V26.8069H65.5994V21.7502ZM66.4997 23.7268H66.7826C67.0699 23.7268 67.2671 23.6867 67.3743 23.6065C67.4836 23.5263 67.5383 23.3934 67.5383 23.2078C67.5383 23.0978 67.5115 23.0027 67.4579 22.9224C67.4043 22.8399 67.3325 22.7815 67.2424 22.7471C67.1524 22.7105 66.9874 22.6921 66.7473 22.6921H66.4997V23.7268Z" fill="white"></path>
<path d="M62.2424 21.6226C62.9112 21.6226 63.4857 21.8815 63.9658 22.3994C64.4481 22.9174 64.6893 23.5487 64.6893 24.2935C64.6893 25.0315 64.4514 25.6559 63.9755 26.167C63.5017 26.678 62.9262 26.9336 62.2488 26.9336C61.5392 26.9336 60.9498 26.6712 60.4803 26.1464C60.0108 25.6216 59.7761 24.9982 59.7761 24.2763C59.7761 23.7928 59.8854 23.3482 60.1041 22.9426C60.3227 22.5369 60.6229 22.2161 61.0044 21.9801C61.3881 21.7417 61.8008 21.6226 62.2424 21.6226ZM62.2327 22.5644C61.7954 22.5644 61.4278 22.7272 61.1298 23.0526C60.8319 23.378 60.6829 23.7917 60.6829 24.2935C60.6829 24.8527 60.8704 25.295 61.2456 25.6204C61.5371 25.8748 61.8715 26.002 62.2488 26.002C62.6754 26.002 63.0387 25.837 63.3388 25.507C63.6389 25.177 63.789 24.7702 63.789 24.2867C63.789 23.8054 63.6379 23.3986 63.3356 23.0663C63.0334 22.7317 62.6657 22.5644 62.2327 22.5644Z" fill="white"></path>
<path d="M54.5352 21.7502H55.4163L56.5095 25.2772L57.6188 21.7502H58.487L59.2844 26.8069H58.4162L57.9082 23.6134L56.9018 26.8069H56.1076L55.114 23.6134L54.5963 26.8069H53.7185L54.5352 21.7502Z" fill="white"></path>
<path d="M213.917 22.4373L213.251 23.0663C213.017 22.718 212.779 22.5438 212.537 22.5438C212.419 22.5438 212.323 22.5782 212.248 22.6469C212.173 22.7134 212.135 22.789 212.135 22.8738C212.135 22.9586 212.162 23.0388 212.216 23.1145C212.288 23.2153 212.508 23.4319 212.875 23.7642C213.218 24.0712 213.426 24.2649 213.499 24.3451C213.681 24.5422 213.809 24.7312 213.884 24.9123C213.962 25.091 214 25.287 214 25.5001C214 25.9149 213.866 26.2575 213.598 26.5279C213.33 26.7984 212.981 26.9336 212.55 26.9336C212.213 26.9336 211.92 26.8453 211.669 26.6689C211.42 26.4924 211.207 26.2151 211.029 25.837L211.785 25.3489C212.012 25.7957 212.273 26.0192 212.569 26.0192C212.724 26.0192 212.853 25.9711 212.958 25.8748C213.063 25.7786 213.116 25.6674 213.116 25.5414C213.116 25.4268 213.076 25.3122 212.997 25.1976C212.918 25.083 212.743 24.9077 212.473 24.6717C211.958 24.2225 211.626 23.8764 211.476 23.6335C211.326 23.3883 211.251 23.1442 211.251 22.9013C211.251 22.5507 211.375 22.2505 211.624 22.0007C211.875 21.7486 212.183 21.6226 212.55 21.6226C212.786 21.6226 213.01 21.681 213.222 21.7979C213.436 21.9148 213.668 22.1279 213.917 22.4373Z" fill="white"></path>
<path d="M210.273 22.5748L209.64 23.2451C209.239 22.7913 208.772 22.5644 208.238 22.5644C207.773 22.5644 207.382 22.7294 207.067 23.0595C206.754 23.3895 206.598 23.7905 206.598 24.2626C206.598 24.7507 206.761 25.1644 207.087 25.5035C207.412 25.8427 207.814 26.0123 208.292 26.0123C208.603 26.0123 208.865 25.9424 209.077 25.8026C209.291 25.6628 209.464 25.444 209.595 25.146H208.225V24.242H210.604L210.611 24.4551C210.611 24.8974 210.504 25.3168 210.289 25.7132C210.075 26.1097 209.797 26.4122 209.456 26.6208C209.116 26.8293 208.716 26.9336 208.257 26.9336C207.766 26.9336 207.328 26.8201 206.942 26.5933C206.558 26.3641 206.254 26.0387 206.029 25.617C205.806 25.1953 205.694 24.7404 205.694 24.2523C205.694 23.5831 205.901 23.001 206.315 22.506C206.806 21.917 207.445 21.6226 208.231 21.6226C208.643 21.6226 209.028 21.7039 209.386 21.8666C209.688 22.0041 209.984 22.2402 210.273 22.5748Z" fill="white"></path>
<path d="M201.035 21.7502H201.897L203.926 25.0778V21.7502H204.826V26.8069H203.961L201.935 23.4896V26.8069H201.035V21.7502Z" fill="white"></path>
<path d="M199.122 21.7502H200.016V26.8069H199.122V21.7502Z" fill="white"></path>
<path d="M194.315 21.7502H195.177L197.206 25.0778V21.7502H198.106V26.8069H197.241L195.215 23.4896V26.8069H194.315V21.7502Z" fill="white"></path>
<path d="M190.553 21.7502H191.508C192.031 21.7502 192.403 21.8007 192.624 21.9015C192.847 22 193.026 22.165 193.161 22.3965C193.296 22.628 193.364 22.9018 193.364 23.2181C193.364 23.5504 193.288 23.8288 193.138 24.0534C192.991 24.2757 192.767 24.4441 192.466 24.5587L193.585 26.8069H192.601L191.537 24.6653H191.454V26.8069H190.553V21.7502ZM191.454 23.7268H191.737C192.024 23.7268 192.221 23.6867 192.328 23.6065C192.437 23.5263 192.492 23.3934 192.492 23.2078C192.492 23.0978 192.465 23.0027 192.412 22.9224C192.358 22.8399 192.286 22.7815 192.196 22.7471C192.106 22.7105 191.941 22.6921 191.701 22.6921H191.454V23.7268Z" fill="white"></path>
<path d="M187.058 21.7502H187.971L189.791 26.8069H188.855L188.485 25.7653H186.556L186.17 26.8069H185.235L187.058 21.7502ZM187.521 23.0909L186.891 24.8268H188.148L187.521 23.0909Z" fill="white"></path>
<path d="M182.193 21.7502H184.775V22.6921H183.087V23.6065H184.775V24.5312H183.087V25.8616H184.775V26.8069H182.193V21.7502Z" fill="white"></path>
<path d="M176.919 21.7502H179.501V22.6921H177.813V23.6065H179.501V24.5312H177.813V25.8616H179.501V26.8069H176.919V21.7502Z" fill="white"></path>
<path d="M173.157 21.7502H174.112C174.635 21.7502 175.007 21.8007 175.228 21.9015C175.451 22 175.63 22.165 175.765 22.3965C175.9 22.628 175.968 22.9018 175.968 23.2181C175.968 23.5504 175.893 23.8288 175.743 24.0534C175.595 24.2757 175.371 24.4441 175.071 24.5587L176.19 26.8069H175.206L174.141 24.6653H174.058V26.8069H173.157V21.7502ZM174.058 23.7268H174.341C174.628 23.7268 174.825 23.6867 174.932 23.6065C175.042 23.5263 175.096 23.3934 175.096 23.2078C175.096 23.0978 175.07 23.0027 175.016 22.9224C174.962 22.8399 174.891 22.7815 174.801 22.7471C174.711 22.7105 174.545 22.6921 174.305 22.6921H174.058V23.7268Z" fill="white"></path>
<path d="M169.801 21.6226C170.47 21.6226 171.044 21.8815 171.524 22.3994C172.006 22.9174 172.248 23.5487 172.248 24.2935C172.248 25.0315 172.01 25.6559 171.534 26.167C171.06 26.678 170.485 26.9336 169.807 26.9336C169.098 26.9336 168.508 26.6712 168.039 26.1464C167.569 25.6216 167.334 24.9982 167.334 24.2763C167.334 23.7928 167.444 23.3482 167.662 22.9426C167.881 22.5369 168.181 22.2161 168.563 21.9801C168.946 21.7417 169.359 21.6226 169.801 21.6226ZM169.791 22.5644C169.354 22.5644 168.986 22.7272 168.688 23.0526C168.39 23.378 168.241 23.7917 168.241 24.2935C168.241 24.8527 168.429 25.295 168.804 25.6204C169.095 25.8748 169.43 26.002 169.807 26.002C170.234 26.002 170.597 25.837 170.897 25.507C171.197 25.177 171.347 24.7702 171.347 24.2867C171.347 23.8054 171.196 23.3986 170.894 23.0663C170.592 22.7317 170.224 22.5644 169.791 22.5644Z" fill="white"></path>
<path d="M162.093 21.7502H162.974L164.068 25.2772L165.177 21.7502H166.045L166.843 26.8069H165.974L165.466 23.6134L164.46 26.8069H163.666L162.672 23.6134L162.154 26.8069H161.277L162.093 21.7502Z" fill="white"></path>
<path d="M152.761 22.4373L152.096 23.0663C151.862 22.718 151.624 22.5438 151.382 22.5438C151.264 22.5438 151.167 22.5782 151.092 22.6469C151.017 22.7134 150.98 22.789 150.98 22.8738C150.98 22.9586 151.007 23.0388 151.06 23.1145C151.133 23.2153 151.353 23.4319 151.719 23.7642C152.062 24.0712 152.27 24.2649 152.343 24.3451C152.525 24.5422 152.654 24.7312 152.729 24.9123C152.806 25.091 152.845 25.287 152.845 25.5001C152.845 25.9149 152.711 26.2575 152.443 26.5279C152.175 26.7984 151.826 26.9336 151.395 26.9336C151.058 26.9336 150.764 26.8453 150.514 26.6689C150.265 26.4924 150.052 26.2151 149.874 25.837L150.629 25.3489C150.857 25.7957 151.118 26.0192 151.414 26.0192C151.568 26.0192 151.698 25.9711 151.803 25.8748C151.908 25.7786 151.961 25.6674 151.961 25.5414C151.961 25.4268 151.921 25.3122 151.842 25.1976C151.762 25.083 151.588 24.9077 151.318 24.6717C150.803 24.2225 150.471 23.8764 150.321 23.6335C150.171 23.3883 150.096 23.1442 150.096 22.9013C150.096 22.5507 150.22 22.2505 150.469 22.0007C150.719 21.7486 151.028 21.6226 151.395 21.6226C151.63 21.6226 151.854 21.681 152.067 21.7979C152.281 21.9148 152.513 22.1279 152.761 22.4373Z" fill="white"></path>
<path d="M149.118 22.5748L148.485 23.2451C148.084 22.7913 147.616 22.5644 147.083 22.5644C146.618 22.5644 146.227 22.7294 145.912 23.0595C145.599 23.3895 145.443 23.7905 145.443 24.2626C145.443 24.7507 145.606 25.1644 145.932 25.5035C146.257 25.8427 146.659 26.0123 147.137 26.0123C147.448 26.0123 147.71 25.9424 147.922 25.8026C148.136 25.6628 148.309 25.444 148.44 25.146H147.07V24.242H149.449L149.456 24.4551C149.456 24.8974 149.349 25.3168 149.134 25.7132C148.92 26.1097 148.642 26.4122 148.301 26.6208C147.961 26.8293 147.561 26.9336 147.102 26.9336C146.611 26.9336 146.173 26.8201 145.787 26.5933C145.403 26.3641 145.099 26.0387 144.874 25.617C144.651 25.1953 144.539 24.7404 144.539 24.2523C144.539 23.5831 144.746 23.001 145.16 22.506C145.651 21.917 146.29 21.6226 147.076 21.6226C147.488 21.6226 147.873 21.7039 148.231 21.8666C148.533 22.0041 148.829 22.2402 149.118 22.5748Z" fill="white"></path>
<path d="M139.88 21.7502H140.742L142.771 25.0778V21.7502H143.671V26.8069H142.806L140.78 23.4896V26.8069H139.88V21.7502Z" fill="white"></path>
<path d="M137.967 21.7502H138.861V26.8069H137.967V21.7502Z" fill="white"></path>
<path d="M133.06 21.7502H133.986L135.176 25.3425L136.382 21.7502H137.308L135.604 26.8069H134.736L133.06 21.7502Z" fill="white"></path>
<path d="M129.986 21.7502H130.899L132.719 26.8069H131.784L131.414 25.7653H129.485L129.099 26.8069H128.163L129.986 21.7502ZM130.449 23.0909L129.819 24.8268H131.076L130.449 23.0909Z" fill="white"></path>
<path d="M127.597 22.4373L126.931 23.0663C126.698 22.718 126.46 22.5438 126.218 22.5438C126.1 22.5438 126.003 22.5782 125.928 22.6469C125.853 22.7134 125.816 22.789 125.816 22.8738C125.816 22.9586 125.842 23.0388 125.896 23.1145C125.969 23.2153 126.189 23.4319 126.555 23.7642C126.898 24.0712 127.106 24.2649 127.179 24.3451C127.361 24.5422 127.49 24.7312 127.565 24.9123C127.642 25.091 127.681 25.287 127.681 25.5001C127.681 25.9149 127.547 26.2575 127.279 26.5279C127.011 26.7984 126.661 26.9336 126.23 26.9336C125.894 26.9336 125.6 26.8453 125.349 26.6689C125.101 26.4924 124.887 26.2151 124.709 25.837L125.465 25.3489C125.692 25.7957 125.954 26.0192 126.25 26.0192C126.404 26.0192 126.534 25.9711 126.639 25.8748C126.744 25.7786 126.796 25.6674 126.796 25.5414C126.796 25.4268 126.757 25.3122 126.677 25.1976C126.598 25.083 126.423 24.9077 126.153 24.6717C125.639 24.2225 125.306 23.8764 125.156 23.6335C125.006 23.3883 124.931 23.1442 124.931 22.9013C124.931 22.5507 125.056 22.2505 125.304 22.0007C125.555 21.7486 125.864 21.6226 126.23 21.6226C126.466 21.6226 126.69 21.681 126.902 21.7979C127.117 21.9148 127.348 22.1279 127.597 22.4373Z" fill="white"></path>
<path d="M119.848 21.7502H122.43V22.6921H120.742V23.6065H122.43V24.5312H120.742V25.8616H122.43V26.8069H119.848V21.7502Z" fill="white"></path>
<path d="M116.086 21.7502H117.041C117.564 21.7502 117.936 21.8007 118.157 21.9015C118.38 22 118.559 22.165 118.694 22.3965C118.829 22.628 118.896 22.9018 118.896 23.2181C118.896 23.5504 118.821 23.8288 118.671 24.0534C118.523 24.2757 118.299 24.4441 117.999 24.5587L119.118 26.8069H118.134L117.07 24.6653H116.986V26.8069H116.086V21.7502ZM116.986 23.7268H117.269C117.556 23.7268 117.754 23.6867 117.861 23.6065C117.97 23.5263 118.025 23.3934 118.025 23.2078C118.025 23.0978 117.998 23.0027 117.944 22.9224C117.891 22.8399 117.819 22.7815 117.729 22.7471C117.639 22.7105 117.474 22.6921 117.234 22.6921H116.986V23.7268Z" fill="white"></path>
<path d="M112.729 21.6226C113.398 21.6226 113.972 21.8815 114.453 22.3994C114.935 22.9174 115.176 23.5487 115.176 24.2935C115.176 25.0315 114.938 25.6559 114.462 26.167C113.989 26.678 113.413 26.9336 112.736 26.9336C112.026 26.9336 111.437 26.6712 110.967 26.1464C110.498 25.6216 110.263 24.9982 110.263 24.2763C110.263 23.7928 110.372 23.3482 110.591 22.9426C110.81 22.5369 111.11 22.2161 111.491 21.9801C111.875 21.7417 112.288 21.6226 112.729 21.6226ZM112.72 22.5644C112.282 22.5644 111.915 22.7272 111.617 23.0526C111.319 23.378 111.17 23.7917 111.17 24.2935C111.17 24.8527 111.357 25.295 111.732 25.6204C112.024 25.8748 112.358 26.002 112.736 26.002C113.162 26.002 113.526 25.837 113.826 25.507C114.126 25.177 114.276 24.7702 114.276 24.2867C114.276 23.8054 114.125 23.3986 113.822 23.0663C113.52 22.7317 113.153 22.5644 112.72 22.5644Z" fill="white"></path>
<path d="M105.022 21.7502H105.903L106.996 25.2772L108.105 21.7502H108.973L109.771 26.8069H108.903L108.395 23.6134L107.388 26.8069H106.594L105.6 23.6134L105.083 26.8069H104.205L105.022 21.7502Z" fill="white"></path>
<path d="M100.162 25.5409C99.8615 25.5409 99.6068 25.4318 99.3985 25.2137C99.1901 24.9956 99.0859 24.729 99.0859 24.414C99.0859 24.099 99.1901 23.8324 99.3985 23.6143C99.6068 23.3962 99.8615 23.2871 100.162 23.2871C100.452 23.2871 100.695 23.3962 100.892 23.6143C101.1 23.8324 101.204 24.099 101.204 24.414C101.204 24.729 101.1 24.9956 100.892 25.2137C100.695 25.4318 100.452 25.5409 100.162 25.5409Z" fill="white"></path>
<path d="M157.234 25.5409C156.933 25.5409 156.678 25.4318 156.47 25.2137C156.261 24.9956 156.157 24.729 156.157 24.414C156.157 24.099 156.261 23.8324 156.47 23.6143C156.678 23.3962 156.933 23.2871 157.234 23.2871C157.523 23.2871 157.766 23.3962 157.963 23.6143C158.171 23.8324 158.276 24.099 158.276 24.414C158.276 24.729 158.171 24.9956 157.963 25.2137C157.766 25.4318 157.523 25.5409 157.234 25.5409Z" fill="white"></path>
<defs>
<clipPath id="clip0_2873_5483">
<rect width="45.7492" height="26.8176" fill="white"></rect>
</clipPath>
</defs>
</svg>