<svg width="24" height="24" viewBox="0 0 24 24" fill="none" xmlns="http://www.w3.org/2000/svg">
<path d="M5 21C4.45 21 3.97933 20.8043 3.588 20.413C3.19667 20.0217 3.00067 19.5507 3 19V5C3 4.45 3.196 3.97933 3.588 3.588C3.98 3.19667 4.45067 3.00067 5 3H9C9.55 3 10.021 3.196 10.413 3.588C10.805 3.98 11.0007 4.45067 11 5V19C11 19.55 10.8043 20.021 10.413 20.413C10.0217 20.805 9.55067 21.0007 9 21H5ZM15 21C14.45 21 13.9793 20.8043 13.588 20.413C13.1967 20.0217 13.0007 19.5507 13 19V14C13 13.45 13.196 12.9793 13.588 12.588C13.98 12.1967 14.4507 12.0007 15 12H19C19.55 12 20.021 12.196 20.413 12.588C20.805 12.98 21.0007 13.4507 21 14V19C21 19.55 20.8043 20.021 20.413 20.413C20.0217 20.805 19.5507 21.0007 19 21H15ZM15 10C14.45 10 13.9793 9.80433 13.588 9.413C13.1967 9.02167 13.0007 8.55067 13 8V5C13 4.45 13.196 3.97933 13.588 3.588C13.98 3.19667 14.4507 3.00067 15 3H19C19.55 3 20.021 3.196 20.413 3.588C20.805 3.98 21.0007 4.45067 21 5V8C21 8.55 20.8043 9.021 20.413 9.413C20.0217 9.805 19.5507 10.0007 19 10H15Z" fill="url(#paint0_linear_8749_6359)"/>
<defs>
<linearGradient id="paint0_linear_8749_6359" x1="3.20571" y1="3.60577" x2="24.0706" y2="10.7721" gradientUnits="userSpaceOnUse">
<stop stop-color="#0081AA"/>
<stop offset="1" stop-color="#00AA4F"/>
</linearGradient>
</defs>
</svg>
