<svg width="24" height="24" viewBox="0 0 24 24" fill="none" xmlns="http://www.w3.org/2000/svg">
<path d="M10 16V15H3V19C3 20.11 3.89 21 5 21H19C20.11 21 21 20.11 21 19V15H14V16H10ZM20 7H16V5L14 3H10L8 5V7H4C2.9 7 2 7.9 2 9V12C2 13.11 2.89 14 4 14H10V12H14V14H20C21.1 14 22 13.1 22 12V9C22 7.9 21.1 7 20 7ZM14 7H10V5H14V7Z" fill="url(#paint0_linear_8565_9899)"/>
<defs>
<linearGradient id="paint0_linear_8565_9899" x1="2.22857" y1="3.60577" x2="24.8518" y2="12.2394" gradientUnits="userSpaceOnUse">
<stop stop-color="#0081AA"/>
<stop offset="1" stop-color="#00AA4F"/>
</linearGradient>
</defs>
</svg>
