<svg width="24" height="24" viewBox="0 0 24 24" fill="none" xmlns="http://www.w3.org/2000/svg">
<g clip-path="url(#clip0_8749_6379)">
<path d="M2 12C2 13.1333 2.28333 14.171 2.85 15.113C3.41667 16.055 4.175 16.7757 5.125 17.275C5.35833 17.4083 5.52933 17.6 5.638 17.85C5.74667 18.1 5.75067 18.35 5.65 18.6C5.55 18.8667 5.375 19.0583 5.125 19.175C4.875 19.2917 4.63333 19.2833 4.4 19.15C3.1 18.4833 2.04167 17.521 1.225 16.263C0.408333 15.005 0 13.584 0 12C0 10.4333 0.396 9.025 1.188 7.775C1.98 6.525 3.01733 5.56667 4.3 4.9C4.53333 4.76667 4.77933 4.754 5.038 4.862C5.29667 4.97 5.484 5.15767 5.6 5.425C5.71667 5.65833 5.725 5.9 5.625 6.15C5.525 6.4 5.35833 6.59167 5.125 6.725C4.175 7.225 3.41667 7.946 2.85 8.888C2.28333 9.83 2 10.8673 2 12ZM14 20C11.7833 20 9.89567 19.221 8.337 17.663C6.77833 16.105 5.99933 14.2173 6 12C6.00067 9.78267 6.78 7.895 8.338 6.337C9.896 4.779 11.7833 4 14 4C14.9333 4 15.8167 4.15 16.65 4.45C17.4833 4.75 18.2417 5.16667 18.925 5.7C19.1417 5.86667 19.25 6.08333 19.25 6.35C19.25 6.61667 19.15 6.85 18.95 7.05C18.7667 7.23333 18.5373 7.33333 18.262 7.35C17.9867 7.36667 17.7327 7.29167 17.5 7.125C17 6.75833 16.454 6.47933 15.862 6.288C15.27 6.09667 14.6493 6.00067 14 6C12.3333 6 10.9167 6.58333 9.75 7.75C8.58333 8.91667 8 10.3333 8 12C8 13.6667 8.58333 15.0833 9.75 16.25C10.9167 17.4167 12.3333 18 14 18C14.65 18 15.271 17.904 15.863 17.712C16.455 17.52 17.0007 17.241 17.5 16.875C17.7333 16.7083 17.9877 16.6333 18.263 16.65C18.5383 16.6667 18.7673 16.7667 18.95 16.95C19.15 17.15 19.25 17.3833 19.25 17.65C19.25 17.9167 19.1417 18.1333 18.925 18.3C18.2417 18.8333 17.4833 19.25 16.65 19.55C15.8167 19.85 14.9333 20 14 20ZM20.2 13H14C13.7167 13 13.4793 12.904 13.288 12.712C13.0967 12.52 13.0007 12.2827 13 12C12.9993 11.7173 13.0953 11.48 13.288 11.288C13.4807 11.096 13.718 11 14 11H20.2L19.3 10.1C19.1167 9.91667 19.025 9.68333 19.025 9.4C19.025 9.11667 19.1167 8.88333 19.3 8.7C19.4833 8.51667 19.7167 8.425 20 8.425C20.2833 8.425 20.5167 8.51667 20.7 8.7L23.3 11.3C23.5 11.5 23.6 11.7333 23.6 12C23.6 12.2667 23.5 12.5 23.3 12.7L20.7 15.3C20.5167 15.4833 20.2833 15.575 20 15.575C19.7167 15.575 19.4833 15.4833 19.3 15.3C19.1167 15.1167 19.025 14.8833 19.025 14.6C19.025 14.3167 19.1167 14.0833 19.3 13.9L20.2 13Z" fill="#757575"/>
</g>
<defs>
<clipPath id="clip0_8749_6379">
<rect width="24" height="24" fill="white"/>
</clipPath>
</defs>
</svg>
