<svg width="24" height="24" viewBox="0 0 24 24" fill="none" xmlns="http://www.w3.org/2000/svg">
<path d="M7.19995 3.59961C5.8762 3.59961 4.79995 4.67586 4.79995 5.99961V14.3996C4.79995 15.7234 5.8762 16.7996 7.19995 16.7996H20.4C21.7237 16.7996 22.8 15.7234 22.8 14.3996V5.99961C22.8 4.67586 21.7237 3.59961 20.4 3.59961H7.19995ZM13.8 7.19961C15.4575 7.19961 16.8 8.54211 16.8 10.1996C16.8 11.8571 15.4575 13.1996 13.8 13.1996C12.1425 13.1996 10.8 11.8571 10.8 10.1996C10.8 8.54211 12.1425 7.19961 13.8 7.19961ZM7.19995 8.09961V6.29961C7.19995 6.13461 7.33495 5.99961 7.49995 5.99961H9.29995C9.46495 5.99961 9.6037 6.13461 9.5812 6.29961C9.4462 7.38711 8.5837 8.24586 7.49995 8.38086C7.33495 8.39961 7.19995 8.26461 7.19995 8.09961ZM7.19995 12.2996C7.19995 12.1346 7.33495 11.9959 7.49995 12.0184C8.58745 12.1534 9.4462 13.0159 9.5812 14.0996C9.59995 14.2646 9.46495 14.3996 9.29995 14.3996H7.49995C7.33495 14.3996 7.19995 14.2646 7.19995 14.0996V12.2996ZM20.1 8.38086C19.0125 8.24586 18.1537 7.38336 18.0187 6.29961C18 6.13461 18.135 5.99961 18.3 5.99961H20.1C20.265 5.99961 20.4 6.13461 20.4 6.29961V8.09961C20.4 8.26461 20.265 8.40336 20.1 8.38086ZM20.4 12.2996V14.0996C20.4 14.2646 20.265 14.3996 20.1 14.3996H18.3C18.135 14.3996 17.9962 14.2646 18.0187 14.0996C18.1537 13.0121 19.0162 12.1534 20.1 12.0184C20.265 11.9996 20.4 12.1346 20.4 12.2996ZM2.99995 8.09961C2.99995 7.60086 2.5987 7.19961 2.09995 7.19961C1.6012 7.19961 1.19995 7.60086 1.19995 8.09961V17.9996C1.19995 19.3234 2.2762 20.3996 3.59995 20.3996H18.3C18.7987 20.3996 19.2 19.9984 19.2 19.4996C19.2 19.0009 18.7987 18.5996 18.3 18.5996H3.59995C3.26995 18.5996 2.99995 18.3296 2.99995 17.9996V8.09961Z" fill="#757575"/>
</svg>
