<svg width="24" height="24" viewBox="0 0 24 24" fill="none" xmlns="http://www.w3.org/2000/svg">
<path d="M5.795 14.3056L4.023 12.5306L2.25 14.3056M18.205 9.72656L19.977 11.5026L21.75 9.72656" stroke="#757575" stroke-width="1.5" stroke-linecap="round" stroke-linejoin="round"/>
<path d="M19.9769 11.5027C19.9769 9.3827 19.137 7.3517 17.641 5.8527C16.9007 5.11096 16.0214 4.52248 15.0535 4.12096C14.0855 3.71943 13.0479 3.51273 11.9999 3.5127C10.982 3.51189 9.97353 3.70782 9.02995 4.0897C7.97661 4.51203 7.02546 5.15418 6.23999 5.97327C5.45451 6.79237 4.85278 7.76959 4.47495 8.8397M4.02295 12.5297C4.02449 14.3843 4.6703 16.1807 5.84995 17.6117C7.02831 19.041 8.66776 20.0152 10.4865 20.3669C12.3053 20.7186 14.1897 20.4257 15.8159 19.5387C17.4421 18.6499 18.7093 17.224 19.4009 15.5047" stroke="#757575" stroke-width="1.5" stroke-linecap="round" stroke-linejoin="round"/>
<path d="M9.58008 13.9777C9.63213 14.5714 9.91454 15.121 10.3669 15.5091C10.8192 15.8971 11.4054 16.0926 12.0001 16.0537C13.9521 16.0537 14.4201 14.9307 14.4201 13.9777C14.4201 13.0247 13.6131 12.0147 12.0001 12.0147C10.3871 12.0147 9.58008 11.3767 9.58008 10.0767C9.60247 9.62622 9.76154 9.19325 10.0361 8.83543C10.3107 8.4776 10.6877 8.2119 11.1171 8.0737C11.4021 7.9817 11.7021 7.9487 12.0001 7.9767C12.5955 7.95082 13.1782 8.15409 13.6283 8.5447C14.0785 8.93531 14.3618 9.48357 14.4201 10.0767M12.0001 17.2637V16.2127M12.0001 6.7627V7.9727" stroke="#757575" stroke-width="1.5" stroke-linecap="round" stroke-linejoin="round"/>
</svg>
